<?xml version="1.0" encoding="UTF-8" standalone="no"?>
<svg
   xmlns:dc="http://purl.org/dc/elements/1.1/"
   xmlns:cc="http://creativecommons.org/ns#"
   xmlns:rdf="http://www.w3.org/1999/02/22-rdf-syntax-ns#"
   xmlns:svg="http://www.w3.org/2000/svg"
   xmlns="http://www.w3.org/2000/svg"
   height="224.05098"
   width="224.05098"
   version="1.1"
   viewBox="0 0 224.05098 224.05098"
   data-name="Layer 1"
   id="Layer_1">
  <metadata
     id="metadata27">
    <rdf:RDF>
      <cc:Work
         rdf:about="">
        <dc:format>image/svg+xml</dc:format>
        <dc:type
           rdf:resource="http://purl.org/dc/dcmitype/StillImage" />
        <dc:title>calender-date-3</dc:title>
      </cc:Work>
    </rdf:RDF>
  </metadata>
  <defs
     id="defs4">
    <style
       id="style2">.cls-1{fill:#ef4136;}.cls-1,.cls-3,.cls-5{fill-rule:evenodd;}.cls-2{fill:gray;}.cls-3{fill:#e6e6e6;}.cls-4{fill:#1a1a1a;}.cls-5{fill:#c72b20;}</style>
  </defs>
  <title
     id="title6">calender-date-3</title>
  <rect
     y="0"
     x="0"
     height="224.05098"
     width="224.05098"
     id="rect843"
     style="opacity:1;fill:#ffd5d5;fill-opacity:1;fill-rule:evenodd;stroke:none;stroke-width:18.8598423;stroke-linecap:round;stroke-linejoin:round;stroke-miterlimit:4;stroke-dasharray:none;stroke-dashoffset:0;stroke-opacity:1;paint-order:fill markers stroke" />
  <path
     style="fill:#ef4136;fill-rule:evenodd"
     id="path8"
     d="m 62.105491,58.19549 h 99.839999 a 11.57,11.57 0 0 1 11.52,11.52 v 26.75 H 50.585491 v -26.75 a 11.56,11.56 0 0 1 11.52,-11.52 z m 24.79,9.75 a 9.31,9.31 0 1 1 -9.31,9.31 9.31,9.31 0 0 1 9.31,-9.31 z m 49.789999,0 a 9.31,9.31 0 1 1 -9.31,9.31 9.31,9.31 0 0 1 9.31,-9.31 z"
     class="cls-1" />
  <path
     style="fill:#ef4136;fill-opacity:1"
     id="path10"
     d="M 161.94549,172.52549 H 62.105491 a 11.57,11.57 0 0 1 -11.52,-11.52 v -69.48 H 173.46549 v 69.46 a 11.56,11.56 0 0 1 -11.52,11.54 z"
     class="cls-2" />
  <path
     style="fill:#ff8f8f;fill-opacity:1;fill-rule:evenodd"
     id="path12"
     d="m 63.335491,168.83549 h 97.379999 a 9.1,9.1 0 0 0 9.06,-9.06 v -68.25 H 54.275491 v 68.23 a 9.09,9.09 0 0 0 9.06,9.06 z"
     class="cls-3" />
  <path
     style="fill:#c72b20;fill-rule:evenodd"
     id="path16"
     d="m 136.68549,66.15549 a 11.11,11.11 0 1 1 -7.85,3.26 l 0.11,-0.1 a 11.06,11.06 0 0 1 7.74,-3.16 z m 0,1.79 a 9.31,9.31 0 1 1 -9.31,9.31 9.31,9.31 0 0 1 9.31,-9.31 z"
     class="cls-5" />
  <path
     style="fill:#c72b20;fill-rule:evenodd"
     id="path18"
     d="m 86.895491,66.15549 a 11.11,11.11 0 1 1 -7.85,3.26 l 0.11,-0.1 a 11.08,11.08 0 0 1 7.74,-3.16 z m 0,1.79 a 9.31,9.31 0 1 1 -9.31,9.31 9.31,9.31 0 0 1 9.31,-9.31 z"
     class="cls-5" />
  <path
     style="fill:#1a1a1a"
     id="path20"
     d="m 131.12549,56.08549 c 0,-2.56 2.46,-4.56 5.56,-4.56 3.1,0 5.56,2 5.56,4.56 v 21.21 c 0,2.51 -2.48,4.56 -5.56,4.56 -3.08,0 -5.56,-2 -5.56,-4.56 v -21.21 z"
     class="cls-4" />
  <path
     style="fill:#1a1a1a"
     id="path22"
     d="m 81.335491,56.08549 c 0,-2.56 2.49,-4.56 5.56,-4.56 3.07,0 5.56,2 5.56,4.56 v 21.21 c 0,2.51 -2.48,4.56 -5.56,4.56 -3.08,0 -5.56,-2 -5.56,-4.56 v -21.21 z"
     class="cls-4" />
  <path
     id="path818"
     d="m 108.22546,156.21105 c -7.27732,-1.14482 -13.70743,-5.18447 -17.781977,-11.17132 -6.106718,-8.9728 -6.107892,-20.63468 -0.0028,-29.62456 5.056917,-7.44664 14.387606,-11.99743 23.248096,-11.33862 11.60243,0.86268 20.89467,8.55192 23.81597,19.70749 0.66371,2.53448 0.89723,7.88963 0.46241,10.60376 -0.89771,5.60237 -3.5059,10.59336 -7.62467,14.59007 -3.91366,3.79768 -8.18497,6.03692 -13.40367,7.02689 -1.77763,0.33722 -7.08269,0.46281 -8.71335,0.20629 z m 4.85722,-11.8935 c 0.77381,-0.40015 0.99236,-0.81266 0.99236,-1.87297 0,-1.05152 -0.37204,-1.59427 -1.30355,-1.9017 -1.97592,-0.65211 -3.62142,1.44462 -2.44822,3.11959 0.6831,0.97526 1.68177,1.21235 2.75941,0.65508 z m 0.10854,-5.7354 c 0.11713,-0.11435 0.58315,-5.0658 1.0356,-11.00321 0.73174,-9.60262 0.78218,-10.83575 0.45651,-11.16142 -0.47897,-0.47896 -3.44504,-0.65112 -4.60762,-0.26744 -0.75878,0.25042 -0.87572,0.39183 -0.87837,1.06211 -0.002,0.42528 0.33732,5.32493 0.75333,10.88813 0.70786,9.46581 0.78918,10.14323 1.26725,10.55643 0.50763,0.43876 1.4853,0.40179 1.9733,-0.0746 z"
     style="opacity:1;fill:#ef4136;fill-opacity:1;fill-rule:evenodd;stroke:none;stroke-width:4.59675694;stroke-linecap:round;stroke-linejoin:round;stroke-miterlimit:4;stroke-dasharray:none;stroke-dashoffset:0;stroke-opacity:1;paint-order:fill markers stroke" />
</svg>
