<?xml version="1.0" encoding="UTF-8" standalone="no"?>
<svg
   xmlns:dc="http://purl.org/dc/elements/1.1/"
   xmlns:cc="http://creativecommons.org/ns#"
   xmlns:rdf="http://www.w3.org/1999/02/22-rdf-syntax-ns#"
   xmlns:svg="http://www.w3.org/2000/svg"
   xmlns="http://www.w3.org/2000/svg"
   id="svg1658"
   version="1.1"
   viewBox="0 0 132.29167 132.29167"
   height="500"
   width="500">
  <defs
     id="defs1652">
    <rect
       x="174.26617"
       y="408.61893"
       width="466.60541"
       height="128.30862"
       id="rect1541" />
    <rect
       x="174.26617"
       y="408.61893"
       width="466.60541"
       height="128.30862"
       id="rect2230" />
  </defs>
  <metadata
     id="metadata1655">
    <rdf:RDF>
      <cc:Work
         rdf:about="">
        <dc:format>image/svg+xml</dc:format>
        <dc:type
           rdf:resource="http://purl.org/dc/dcmitype/StillImage" />
        <dc:title></dc:title>
      </cc:Work>
    </rdf:RDF>
  </metadata>
  <g
     id="layer1">
    <g
       transform="matrix(0.85651635,0,0,0.85651635,9.4908445,11.720634)"
       id="g2377">
      <rect
         y="-13.684072"
         x="-11.080749"
         height="154.45317"
         width="154.45317"
         id="rect876"
         style="opacity:1;fill:#ffffff;fill-opacity:1;fill-rule:evenodd;stroke:#868686;stroke-width:0;stroke-linecap:round;stroke-linejoin:round;stroke-miterlimit:4;stroke-dasharray:none;stroke-dashoffset:0;stroke-opacity:0.96019897;paint-order:fill markers stroke" />
      <g
         transform="translate(6.9217251,-5.8092973)"
         id="g868">
        <g
           aria-label="ourclass"
           transform="matrix(0.2059693,0,0,0.22267927,-17.948774,6.511926)"
           id="text1539"
           style="font-style:normal;font-weight:normal;font-size:103.68000031px;line-height:1.25;font-family:sans-serif;white-space:pre;shape-inside:url(#rect1541);fill:#000000;fill-opacity:1;stroke:none;stroke-width:0.99973702;stroke-miterlimit:4;stroke-dasharray:none">
          <path
             d="m 204.74755,501.18108 q -8.08704,0 -14.20416,-3.21408 -6.11712,-3.31776 -9.43488,-9.22752 -3.31776,-6.01344 -3.31776,-14.10048 0,-8.08704 3.31776,-13.9968 3.31776,-6.01344 9.43488,-9.22752 6.11712,-3.21408 14.20416,-3.21408 8.08704,0 14.20416,3.21408 6.11712,3.21408 9.43488,9.22752 3.31776,5.90976 3.31776,13.9968 0,8.08704 -3.31776,14.10048 -3.31776,5.90976 -9.43488,9.22752 -6.11712,3.21408 -14.20416,3.21408 z m 0,-11.9232 q 11.4048,0 11.4048,-14.61888 0,-7.36128 -3.00672,-10.99008 -2.90304,-3.6288 -8.39808,-3.6288 -11.4048,0 -11.4048,14.61888 0,14.61888 11.4048,14.61888 z"
             style="font-style:normal;font-variant:normal;font-weight:800;font-stretch:normal;font-family:Nunito;-inkscape-font-specification:'Nunito Ultra-Bold';fill:#f85759;fill-opacity:1;stroke-width:0.99973702;stroke-miterlimit:4;stroke-dasharray:none"
             id="path1468" />
          <path
             d="m 282.39252,448.40796 q 3.6288,0 5.7024,1.96992 2.17728,1.96992 2.17728,5.39136 v 38.05056 q 0,3.21408 -2.28096,5.184 -2.17728,1.96992 -5.7024,1.96992 -3.31776,0 -5.28768,-1.86624 -1.96992,-1.86624 -1.96992,-4.97664 v -1.0368 q -2.38464,3.93984 -6.32448,6.01344 -3.83616,2.0736 -8.70912,2.0736 -9.64224,0 -14.41152,-5.28768 -4.6656,-5.39136 -4.6656,-16.17408 v -23.95008 q 0,-3.42144 2.0736,-5.39136 2.17728,-1.96992 5.80608,-1.96992 3.6288,0 5.7024,1.96992 2.0736,1.96992 2.0736,5.39136 v 24.26112 q 0,4.56192 1.86624,6.7392 1.96992,2.17728 5.90976,2.17728 4.56192,0 7.36128,-3.1104 2.90304,-3.1104 2.90304,-8.19072 v -21.87648 q 0,-3.42144 2.0736,-5.39136 2.0736,-1.96992 5.7024,-1.96992 z"
             style="font-style:normal;font-variant:normal;font-weight:800;font-stretch:normal;font-family:Nunito;-inkscape-font-specification:'Nunito Ultra-Bold';fill:#f85759;fill-opacity:1;stroke-width:0.99973702;stroke-miterlimit:4;stroke-dasharray:none"
             id="path1470" />
          <path
             d="m 332.7648,448.40796 q 3.1104,-0.20736 4.87296,1.45152 1.86624,1.5552 1.86624,4.76928 0,3.42144 -1.65888,5.08032 -1.65888,1.65888 -5.90976,2.0736 l -3.1104,0.31104 q -5.7024,0.62208 -8.2944,3.73248 -2.48832,3.1104 -2.48832,7.98336 v 19.80288 q 0,3.6288 -2.28096,5.49504 -2.17728,1.86624 -5.49504,1.86624 -3.42144,0 -5.7024,-1.86624 -2.17728,-1.86624 -2.17728,-5.49504 v -38.05056 q 0,-3.42144 2.28096,-5.28768 2.28096,-1.86624 5.49504,-1.86624 3.1104,0 5.184,1.86624 2.0736,1.76256 2.0736,4.97664 v 2.79936 q 1.86624,-4.45824 5.59872,-6.84288 3.83616,-2.38464 8.2944,-2.69568 z"
             style="font-style:normal;font-variant:normal;font-weight:800;font-stretch:normal;font-family:Nunito;-inkscape-font-specification:'Nunito Ultra-Bold';fill:#f85759;fill-opacity:1;stroke-width:0.99973702;stroke-miterlimit:4;stroke-dasharray:none"
             id="path1472" />
          <path
             d="m 367.43442,501.18108 q -7.87968,0 -13.78944,-3.21408 -5.90976,-3.21408 -9.12384,-9.12384 -3.1104,-5.90976 -3.1104,-13.89312 0,-7.98336 3.31776,-13.9968 3.42144,-6.11712 9.53856,-9.43488 6.11712,-3.31776 14.10048,-3.31776 4.1472,0 8.2944,1.14048 4.25088,1.14048 7.56864,3.21408 3.21408,1.96992 3.21408,5.80608 0,2.69568 -1.24416,4.45824 -1.24416,1.65888 -3.31776,1.65888 -1.34784,0 -2.592,-0.41472 -1.14048,-0.5184 -3.1104,-1.45152 -2.17728,-1.14048 -3.93984,-1.76256 -1.65888,-0.62208 -3.83616,-0.62208 -5.80608,0 -8.91648,3.73248 -3.00672,3.6288 -3.00672,10.67904 0,7.05024 3.00672,10.78272 3.1104,3.73248 8.91648,3.73248 2.17728,0 3.83616,-0.5184 1.65888,-0.62208 4.04352,-1.86624 1.96992,-0.93312 3.1104,-1.34784 1.14048,-0.5184 2.48832,-0.5184 1.96992,0 3.21408,1.76256 1.34784,1.76256 1.34784,4.45824 0,3.83616 -3.21408,5.7024 -3.31776,2.0736 -7.67232,3.21408 -4.35456,1.14048 -9.12384,1.14048 z"
             style="font-style:normal;font-variant:normal;font-weight:800;font-stretch:normal;font-family:Nunito;-inkscape-font-specification:'Nunito Ultra-Bold';fill:#595c63;fill-opacity:1;stroke-width:0.99973702;stroke-miterlimit:4;stroke-dasharray:none"
             id="path1474" />
          <path
             d="m 403.01125,500.97372 q -3.42144,0 -5.7024,-1.86624 -2.17728,-1.86624 -2.17728,-5.49504 v -59.51232 q 0,-3.6288 2.17728,-5.49504 2.28096,-1.86624 5.7024,-1.86624 3.31776,0 5.49504,1.86624 2.28096,1.86624 2.28096,5.49504 v 59.51232 q 0,3.6288 -2.28096,5.49504 -2.17728,1.86624 -5.49504,1.86624 z"
             style="font-style:normal;font-variant:normal;font-weight:800;font-stretch:normal;font-family:Nunito;-inkscape-font-specification:'Nunito Ultra-Bold';fill:#595c63;fill-opacity:1;stroke-width:0.99973702;stroke-miterlimit:4;stroke-dasharray:none"
             id="path1476" />
          <path
             d="m 445.78735,448.2006 q 11.19744,0 16.5888,5.49504 5.39136,5.39136 5.39136,16.5888 v 23.43168 q 0,3.42144 -1.96992,5.39136 -1.96992,1.86624 -5.49504,1.86624 -3.31776,0 -5.39136,-1.96992 -1.96992,-2.0736 -1.96992,-5.28768 v -0.72576 q -1.5552,3.83616 -5.184,6.01344 -3.6288,2.17728 -8.50176,2.17728 -5.184,0 -9.43488,-2.0736 -4.1472,-2.0736 -6.63552,-5.80608 -2.38464,-3.73248 -2.38464,-8.2944 0,-5.59872 2.79936,-8.8128 2.90304,-3.21408 9.22752,-4.6656 6.32448,-1.45152 17.31456,-1.45152 h 2.69568 v -1.86624 q 0,-4.35456 -1.96992,-6.32448 -1.86624,-1.96992 -6.32448,-1.96992 -4.45824,0 -12.85632,3.1104 -2.38464,1.14048 -4.04352,1.14048 -2.28096,0 -3.6288,-1.5552 -1.34784,-1.65888 -1.34784,-4.25088 0,-2.0736 0.93312,-3.42144 0.93312,-1.34784 3.00672,-2.48832 3.6288,-1.96992 8.8128,-3.1104 5.28768,-1.14048 10.368,-1.14048 z m -3.1104,42.19776 q 4.56192,0 7.36128,-3.00672 2.79936,-3.1104 2.79936,-7.98336 v -1.76256 h -1.76256 q -8.39808,0 -11.81952,1.34784 -3.31776,1.34784 -3.31776,4.87296 0,2.90304 1.86624,4.76928 1.96992,1.76256 4.87296,1.76256 z"
             style="font-style:normal;font-variant:normal;font-weight:800;font-stretch:normal;font-family:Nunito;-inkscape-font-specification:'Nunito Ultra-Bold';fill:#595c63;fill-opacity:1;stroke-width:0.99973702;stroke-miterlimit:4;stroke-dasharray:none"
             id="path1478" />
          <path
             d="m 498.85856,501.18108 q -6.32448,0 -10.99008,-1.0368 -4.6656,-1.0368 -8.19072,-3.31776 -1.5552,-0.93312 -2.38464,-2.48832 -0.82944,-1.5552 -0.82944,-3.52512 0,-2.38464 1.34784,-3.93984 1.34784,-1.65888 3.31776,-1.65888 1.34784,0 2.69568,0.5184 1.34784,0.41472 2.79936,1.0368 2.90304,1.34784 5.7024,2.17728 2.79936,0.72576 6.94656,0.72576 3.6288,0 5.59872,-1.14048 2.0736,-1.14048 2.0736,-3.1104 0,-1.45152 -0.93312,-2.28096 -0.82944,-0.93312 -3.21408,-1.65888 -2.38464,-0.72576 -7.56864,-1.76256 -9.22752,-1.76256 -13.27104,-5.28768 -4.04352,-3.52512 -4.04352,-9.8496 0,-4.6656 2.79936,-8.39808 2.90304,-3.73248 7.87968,-5.80608 4.97664,-2.17728 11.19744,-2.17728 4.45824,0 8.70912,1.14048 4.25088,1.14048 7.56864,3.21408 3.21408,1.96992 3.21408,5.80608 0,2.48832 -1.34784,4.1472 -1.34784,1.65888 -3.31776,1.65888 -2.38464,0 -5.7024,-1.86624 -2.592,-1.34784 -4.76928,-1.96992 -2.0736,-0.72576 -4.97664,-0.72576 -3.21408,0 -5.08032,1.24416 -1.86624,1.14048 -1.86624,3.21408 0,2.17728 2.17728,3.31776 2.17728,1.14048 8.39808,2.28096 6.94656,1.34784 10.8864,3.31776 3.93984,1.86624 5.7024,4.76928 1.76256,2.90304 1.76256,7.36128 0,7.36128 -6.11712,11.71584 -6.01344,4.35456 -16.17408,4.35456 z"
             style="font-style:normal;font-variant:normal;font-weight:800;font-stretch:normal;font-family:Nunito;-inkscape-font-specification:'Nunito Ultra-Bold';fill:#595c63;fill-opacity:1;stroke-width:0.99973702;stroke-miterlimit:4;stroke-dasharray:none"
             id="path1480" />
          <path
             d="m 549.28104,501.18108 q -6.32448,0 -10.99008,-1.0368 -4.6656,-1.0368 -8.19072,-3.31776 -1.5552,-0.93312 -2.38464,-2.48832 -0.82944,-1.5552 -0.82944,-3.52512 0,-2.38464 1.34784,-3.93984 1.34784,-1.65888 3.31776,-1.65888 1.34784,0 2.69568,0.5184 1.34784,0.41472 2.79936,1.0368 2.90304,1.34784 5.7024,2.17728 2.79936,0.72576 6.94656,0.72576 3.6288,0 5.59872,-1.14048 2.0736,-1.14048 2.0736,-3.1104 0,-1.45152 -0.93312,-2.28096 -0.82944,-0.93312 -3.21408,-1.65888 -2.38464,-0.72576 -7.56864,-1.76256 -9.22752,-1.76256 -13.27104,-5.28768 -4.04352,-3.52512 -4.04352,-9.8496 0,-4.6656 2.79936,-8.39808 2.90304,-3.73248 7.87968,-5.80608 4.97664,-2.17728 11.19744,-2.17728 4.45824,0 8.70912,1.14048 4.25088,1.14048 7.56864,3.21408 3.21408,1.96992 3.21408,5.80608 0,2.48832 -1.34784,4.1472 -1.34784,1.65888 -3.31776,1.65888 -2.38464,0 -5.7024,-1.86624 -2.592,-1.34784 -4.76928,-1.96992 -2.0736,-0.72576 -4.97664,-0.72576 -3.21408,0 -5.08032,1.24416 -1.86624,1.14048 -1.86624,3.21408 0,2.17728 2.17728,3.31776 2.17728,1.14048 8.39808,2.28096 6.94656,1.34784 10.8864,3.31776 3.93984,1.86624 5.7024,4.76928 1.76256,2.90304 1.76256,7.36128 0,7.36128 -6.11712,11.71584 -6.01344,4.35456 -16.17408,4.35456 z"
             style="font-style:normal;font-variant:normal;font-weight:800;font-stretch:normal;font-family:Nunito;-inkscape-font-specification:'Nunito Ultra-Bold';fill:#595c63;fill-opacity:1;stroke-width:0.99973702;stroke-miterlimit:4;stroke-dasharray:none"
             id="path1482" />
        </g>
        <path
           id="path3274"
           d="M 63.666421,60.275938 V 58.71273 c 6.910598,-1.515274 11.592223,-5.786792 14.721304,-11.914461 1.496629,-3.086465 2.090485,-6.396629 2.103799,-9.800001 -0.0028,-4.641681 -1.147769,-8.950484 -3.789508,-12.950377 -0.279622,-0.418097 -0.03995,-0.98799 0.455381,-1.073208 0.247662,-0.03995 0.476686,-0.0719 0.703044,-0.0719 5.014512,-0.01861 10.029023,-0.0559 15.04353,0.008 2.471303,0.03197 4.95593,0.119836 7.403259,0.436742 3.1131,0.402118 6.2262,0.929402 9.27804,1.659074 2.38609,0.567227 4.74289,1.371468 6.48451,3.334134 1.32886,1.499287 1.61381,3.280869 0.79893,5.129016 -0.88148,1.994619 -2.19702,3.597777 -3.90403,4.929295 -1.60315,1.256956 -3.10245,2.657719 -4.76152,3.829458 -1.57919,1.115816 -3.36076,1.946685 -5.02517,2.942665 -1.71233,1.025268 -4.119725,2.343478 -4.119725,2.343478 0,0 -2.247613,1.193044 -4.495217,2.332824 -2.415376,1.227661 -4.83875,2.394077 -4.83875,2.394077 0,0 -5.749509,2.489943 -5.749509,2.489943 0,0 -7.23283,3.192993 -7.23283,3.192993 0,0 -4.071789,1.864127 -4.540485,2.079836 2.207663,1.384783 4.287498,2.639073 6.314077,3.975923 2.348803,1.549893 4.654997,3.163692 6.969181,4.764184 1.853478,1.283585 3.741575,2.521903 5.517822,3.90402 2.191695,1.709679 4.258212,3.57913 6.42327,5.326087 2.244941,1.805545 4.117056,3.954619 5.808096,6.260819 0.89744,1.222338 1.53657,2.599131 1.84017,4.093093 0.29027,1.440706 -0.89479,3.416687 -2.34349,4.010549 -2.31951,0.953364 -4.708252,0.92407 -7.176902,0.777605 -2.114456,-0.12516 -4.151683,-0.529942 -6.170271,-1.027933 -2.884076,-0.708367 -5.613692,-1.874782 -8.236793,-3.272879 -0.482009,-0.255652 -0.676414,-0.636471 -0.402116,-1.206357 0.218367,-0.452724 0.402116,-0.942723 0.487334,-1.438048 0.402117,-2.396735 0.32489,-4.790812 -0.159779,-7.168909 -0.242338,-1.203675 -0.482017,-2.418022 -0.862829,-3.584437 -0.990649,-3.027876 -2.529893,-5.749509 -4.673643,-8.132929 -0.876137,-0.974676 -2.671033,-2.81484 -5.424618,-4.460599 -1.158425,-0.692395 -2.945325,-1.741632 -5.523151,-2.354134 -0.378154,-0.09054 -0.697719,-0.154455 -0.921411,-0.194398"
           style="fill:#fdebeb;fill-opacity:1;fill-rule:nonzero;stroke:none;stroke-width:0.68173873" />
        <path
           id="path3276"
           d="m 59.123263,58.37452 c -1.259615,-0.07723 -9.544345,-0.713692 -14.85978,-7.222175 -3.480597,-4.260869 -4.266195,-9.304668 -4.335434,-9.792009 -0.151793,-1.054562 -0.189076,-1.94402 -0.194402,-2.572502 6.622989,-5.24087 13.243315,-10.484398 19.866303,-15.725267 6.236849,4.966571 12.40446,9.871902 18.540106,14.755922 0.06122,1.770927 0.03197,7.451198 -3.957277,12.718696 -5.432609,7.179565 -13.810542,7.768097 -15.059516,7.837335"
           style="fill:#f85759;fill-opacity:1;fill-rule:nonzero;stroke:none;stroke-width:0.68173873" />
        <path
           id="path3278"
           d="m 61.05131,62.438325 c 0,1.091847 -0.897448,1.978639 -1.999943,1.978639 -1.105167,0 -2.002609,-0.886792 -2.002609,-1.978639 0,-1.094511 0.897442,-1.981304 2.002609,-1.981304 1.102495,0 1.999943,0.886793 1.999943,1.981304"
           style="fill:#f85759;fill-opacity:1;fill-rule:nonzero;stroke:none;stroke-width:0.68173873" />
        <path
           id="path3280"
           d="m 77.580818,85.960991 c -0.14114,0.519295 -0.617825,0.878802 -1.155758,0.878802 H 65.450655 c -0.966679,0 -1.941355,0.06924 -2.90005,-0.01595 -0.780271,-0.01063 -1.488645,0.03729 -2.09315,0.33288 -0.19174,0.09321 -0.455382,0.226358 -0.732338,0.49 -0.492666,0.474027 -0.52995,0.916087 -0.772288,0.918753 -0.231682,0.0028 -0.276956,-0.402117 -0.780271,-0.86283 -0.239672,-0.221026 -0.452716,-0.335538 -0.663093,-0.444725 -0.585874,-0.306251 -1.254297,-0.450057 -2.029242,-0.439401 -4.527174,0.0559 -9.054348,0.02127 -13.581522,0.02127 h -0.327555 c -0.532608,0 -1.003967,-0.34886 -1.150434,-0.860164 -3.12375,-11.072937 5.336739,-23.352231 16.628046,-24.907448 -0.08788,0.09587 -0.620492,0.958696 -0.396798,2.047883 0.218374,1.043913 1.262287,1.858802 2.524568,1.853478 1.126464,-0.07456 2.042551,-0.849508 2.242281,-1.837498 0.229023,-1.126472 -0.292937,-2.095816 -0.367499,-2.173044 11.192773,0.929402 19.695866,13.208696 16.529508,24.99799"
           style="fill:#595c63;fill-opacity:1;fill-rule:nonzero;stroke:none;stroke-width:0.68173873" />
        <path
           id="path3282"
           d="M 70.899243,96.663763 H 47.083647 c -1.254294,-1.009294 -2.947989,-2.623099 -4.394022,-4.995872 -0.900109,-1.475325 -1.47799,-2.870763 -1.856141,-4.023856 1.139782,0 2.175706,0 3.208967,0 3.768206,0 7.536414,0.02932 11.304619,-0.01595 0.423424,-0.0055 1.448695,-0.05325 2.24228,0.609836 0.52196,0.436742 0.748318,1.01196 0.85484,1.371468 h 1.006629 c 0.130491,-0.354184 0.407448,-0.974676 0.948047,-1.440706 0.252986,-0.218368 0.46603,-0.316906 0.524619,-0.343535 0.410106,-0.183749 0.777604,-0.178425 0.902772,-0.178425 4.873371,0 9.746736,-0.0028 14.620107,-0.0028 0.170435,0 0.340869,0.02666 0.61516,0.04793 -0.412773,1.270271 -1.110484,2.961304 -2.308852,4.748204 -1.315546,1.965331 -2.761583,3.336793 -3.853429,4.223592"
           style="fill:#f55959;fill-opacity:1;fill-rule:nonzero;stroke:none;stroke-width:0.68173873" />
        <path
           id="path3284"
           d="m 39.680385,37.730607 c 0.415436,-6.135653 2.732284,-11.078261 7.318044,-14.998261 h 11.656139 c -6.351356,5.022501 -12.569563,9.935815 -18.974183,14.998261"
           style="fill:#5c5e63;fill-opacity:1;fill-rule:nonzero;stroke:none;stroke-width:0.68173873" />
        <path
           id="path3286"
           d="M 77.961638,36.588162 C 72.220113,32.018382 66.481253,27.448596 60.598595,22.764306 h 10.391191 c 4.202287,3.568475 6.556414,8.180869 7.176906,13.69603 -0.06924,0.04261 -0.138482,0.08522 -0.205054,0.127826"
           style="fill:#545459;fill-opacity:1;fill-rule:nonzero;stroke:none;stroke-width:0.68173873" />
        <path
           id="path3288"
           d="m 44.20756,21.912132 c -0.125163,-0.06129 -0.577881,-0.300927 -0.631142,-0.673749 -0.01066,-0.06661 -0.0054,-0.111853 -0.0027,-0.125168 0.05593,-0.346194 0.609836,-0.487334 0.676414,-0.503314 5.517825,-0.008 29.421308,-0.04261 29.738208,0 0.167776,0.024 0.308916,0.09853 0.308916,0.09853 0.08788,0.06129 0.15712,0.111853 0.213043,0.15712 0.351519,0.284947 0.213044,0.84685 -0.229023,0.940057 -0.319565,0.06924 -0.631141,0.101198 -0.689729,0.09054 -0.756301,-0.15712 -12.138154,-0.125161 -29.384024,0.01595"
           style="fill:#6e6e73;fill-opacity:1;fill-rule:nonzero;stroke:none;stroke-width:0.68173873" />
        <path
           id="path3290"
           d="m 43.435277,98.312181 c 0.178424,-0.59119 0.641794,-0.724347 1.206359,-0.719016 1.001304,0.0054 2.005272,0 3.006575,0 H 73.65017 c 0.02127,0.01063 0.335546,0.167769 0.367498,0.495324 0.03197,0.303586 -0.202388,0.50598 -0.252986,0.551248 -0.268967,0.231689 -0.639131,0.213043 -0.727014,0.210385 -0.830869,-0.02666 -27.112445,0 -28.526522,0 -0.436738,0 -0.93739,0.11717 -1.075869,-0.537941"
           style="fill:#5c5c63;fill-opacity:1;fill-rule:nonzero;stroke:none;stroke-width:0.68173873" />
        <path
           id="path3292"
           d="M 54.782505,60.510285 V 58.947078 C 47.871907,57.429138 43.190277,53.15762 40.061201,47.032616 c -1.49663,-3.086464 -2.090489,-6.396628 -2.106468,-9.802659 0.008,-4.641689 1.150435,-8.950491 3.792174,-12.947718 0.27962,-0.420763 0.03994,-0.987991 -0.455379,-1.073207 -0.247664,-0.04261 -0.476686,-0.0719 -0.705707,-0.0719 -5.011848,-0.01861 -10.026359,-0.0559 -15.04087,0.008 -2.471304,0.02932 -4.955924,0.117178 -7.403261,0.434077 -3.113097,0.404783 -6.226196,0.929402 -9.2780428,1.659074 -2.386087,0.569893 -4.742881,1.374134 -6.4845111,3.3368 -1.3315217,1.496628 -1.61380466,3.280869 -0.798913,5.129016 0.878804,1.994618 2.1970106,3.59511 3.9013585,4.929295 1.6058154,1.254297 3.1024454,2.655052 4.7641844,3.826792 0.639131,0.452723 1.398098,0.929401 5.025163,2.942666 4.439294,2.46598 8.577664,4.657662 8.614946,4.678966 0,0 10.585598,4.881362 10.585598,4.881362 5.837391,2.561846 7.235489,3.195652 7.235489,3.195652 1.515272,0.684398 6.053097,2.769564 4.540489,2.07717 -2.207663,1.384782 -4.2875,2.641739 -6.314076,3.978589 -2.348804,1.547227 -4.655,3.161033 -6.969185,4.764183 -1.853478,1.283586 -3.741575,2.519238 -5.517826,3.904021 -2.191685,1.709679 -4.258206,3.57913 -6.423261,5.323427 -2.247608,1.808205 -4.117065,3.95462 -5.808098,6.263479 -0.897445,1.222338 -1.536575,2.596465 -1.840163,4.090435 -0.290271,1.440705 0.894783,3.416686 2.343478,4.013207 2.319512,0.953364 4.705599,0.92407 7.17424,0.777605 2.11712,-0.127826 4.154347,-0.532609 6.172935,-1.027933 2.884075,-0.711034 5.613695,-1.874782 8.236793,-3.27288 0.479348,-0.255652 0.673749,-0.639129 0.40212,-1.209023 -0.21837,-0.452716 -0.40212,-0.942715 -0.487338,-1.435381 -0.404783,-2.396736 -0.32489,-4.793479 0.15712,-7.16891 0.245,-1.206364 0.482011,-2.420712 0.862826,-3.584462 0.990652,-3.030528 2.532554,-5.749494 4.676305,-8.135581 0.721685,-0.801575 2.543206,-2.721632 5.421956,-4.457933 1.091848,-0.657776 2.660381,-1.587177 4.937282,-2.210327 0.6125,-0.165111 1.134457,-0.271633 1.509946,-0.338205"
           style="fill:#fdebeb;fill-opacity:1;fill-rule:nonzero;stroke:none;stroke-width:0.68173873" />
        <path
           id="path3294"
           d="m 60.276364,62.464954 h -2.492609 v -4.884019 h 2.492609 z m 0,0"
           style="fill:#f85759;fill-opacity:1;fill-rule:nonzero;stroke:none;stroke-width:0.68173873" />
        <path
           id="path3296"
           d="m 57.275116,57.602239 c 0.06122,0.09853 0.119837,0.199729 0.178425,0.298261 -0.724348,-0.178425 -1.155764,-0.745653 -1.097177,-1.158426 0.06924,-0.471353 0.820221,-0.974675 1.720327,-0.711032"
           style="fill:#f85759;fill-opacity:1;fill-rule:nonzero;stroke:none;stroke-width:0.68173873" />
      </g>
    </g>
  </g>
</svg>
